PathFileType	4	(X/Y/Z)	C:\Users\Basilio\Documents\Thesis Gigler\squatting_fais\c3dfiles\073\SLS_front_pre2\markers_experimental.trc
DataRate	CameraRate	NumFrames	NumMarkers	Units	OrigDataRate	OrigDataStartFrame	OrigNumFrames
200.000000	200.000000	4	61	mm	200.000000	830	1328
Frame#	Time	FHD			LBHD			RBHD			C7			T10			CLAV			LSHO			LUUPA			LMUPA			LDUPA			LLEP			LMEP			LRAD			LUL			LRFIN			RSHO			RUPA1			RMUPA			RDUPA			RLEP			RMEP			RRAD			RUL			RUFIN			LASI			RASI			USACR			LSACR			RSACR			LTHI1			LTHI2			LTHI3			LTHI4			LLFC			LMFC			LTIB1			LTIB2			LTIB3			LTIB4			LLMAL			LMMAL			LHEE			LMT1			LMT2			LMT5			RTHI			RTHI2			RTHI3			RTHI4			RLFC			RMFC			RTIB1			RTIB2			RTIB3			RTIB4			RLMAL			RMMAL			RHEE			RMT1			RMT2			RMT5			
		X1	Y1	Z1	X2	Y2	Z2	X3	Y3	Z3	X4	Y4	Z4	X5	Y5	Z5	X6	Y6	Z6	X7	Y7	Z7	X8	Y8	Z8	X9	Y9	Z9	X10	Y10	Z10	X11	Y11	Z11	X12	Y12	Z12	X13	Y13	Z13	X14	Y14	Z14	X15	Y15	Z15	X16	Y16	Z16	X17	Y17	Z17	X18	Y18	Z18	X19	Y19	Z19	X20	Y20	Z20	X21	Y21	Z21	X22	Y22	Z22	X23	Y23	Z23	X24	Y24	Z24	X25	Y25	Z25	X26	Y26	Z26	X27	Y27	Z27	X28	Y28	Z28	X29	Y29	Z29	X30	Y30	Z30	X31	Y31	Z31	X32	Y32	Z32	X33	Y33	Z33	X34	Y34	Z34	X35	Y35	Z35	X36	Y36	Z36	X37	Y37	Z37	X38	Y38	Z38	X39	Y39	Z39	X40	Y40	Z40	X41	Y41	Z41	X42	Y42	Z42	X43	Y43	Z43	X44	Y44	Z44	X45	Y45	Z45	X46	Y46	Z46	X47	Y47	Z47	X48	Y48	Z48	X49	Y49	Z49	X50	Y50	Z50	X51	Y51	Z51	X52	Y52	Z52	X53	Y53	Z53	X54	Y54	Z54	X55	Y55	Z55	X56	Y56	Z56	X57	Y57	Z57	X58	Y58	Z58	X59	Y59	Z59	X60	Y60	Z60	X61	Y61	Z61	

831	4.15	-126.5587005615235	1464.594360351563	-803.8091430664065	-260.9327697753907	1435.120239257813	-830.762390136719	-286.9509887695313	1420.592163085938	-697.3847656250001	-311.4492797851563	1342.500854492188	-759.8228149414064	-509.4752197265626	1078.65283203125	-759.0783081054689	-222.5651550292969	1219.2998046875	-755.4923095703126	-227.5255432128907	1275.787231445313	-898.1741333007815	-160.4487762451172	1187.44287109375	-991.325378417969	-118.0098648071289	1199.892944335938	-967.7141723632815	-103.823844909668	1149.170654296875	-998.245300292969	-4.258522033691407	1108.248901367188	-998.5811157226565	-16.86924743652344	1055.201416015625	-953.0153808593752	248.8790893554688	1110.536865234375	-869.0102539062502	257.3646850585938	1105.501586914063	-942.517028808594	329.3925781250001	1117.25537109375	-857.4580078125002	-221.3722381591797	1273.5341796875	-618.4821166992189	-148.7782135009766	1168.969116210938	-512.6390380859376	-106.9600906372071	1184.111938476563	-531.1551513671876	-90.45085906982423	1132.760864257813	-505.4403686523439	-0.5451347827911378	1103.939575195313	-505.2205505371095	-11.44755744934082	1047.14990234375	-564.9226074218751	247.2019958496094	1109.219970703125	-639.2710571289064	261.4096679687501	1122.728881835938	-565.3090209960939	334.6116638183594	1129.27587890625	-650.9089355468751	-402.6333007812501	895.0496826171877	-889.709411621094	-390.5619506835939	883.274597167969	-643.2810058593751	-567.3193969726564	948.3295898437502	-757.3587646484376	-579.2166137695314	919.4249267578127	-786.044128417969	-579.7238159179689	915.4160766601565	-730.2816162109376	-224.324691772461	699.0642700195314	-942.9486083984377	-143.496322631836	687.1599731445314	-918.943786621094	-128.3016357421875	722.0061645507814	-886.510437011719	-116.8296585083008	635.8070678710939	-908.911071777344	-69.22452545166017	602.6465454101564	-906.893249511719	-77.48603820800783	594.1773071289064	-767.0314331054689	107.4068603515625	508.7558593750001	-847.139099121094	101.3749694824219	441.2790832519532	-902.5472412109377	132.4261322021485	464.9988403320314	-879.1427001953127	189.361083984375	412.5205993652345	-843.8703613281252	236.4819335937501	286.7310791015626	-870.9307861328127	222.3130645751954	307.8901977539063	-786.6292114257815	221.5209503173829	219.7828521728516	-830.3927001953127	370.4198913574219	381.9619140625001	-780.247985839844	372.7754516601563	385.1237792968751	-819.995544433594	368.8218994140626	345.2162170410157	-874.5969848632815	-346.6622619628907	657.8259887695314	-597.9870605468751	-283.3882446289063	637.5413818359376	-602.1022338867189	-258.2570800781251	658.9559326171876	-605.7421875000001	-256.4568176269532	563.2579956054689	-630.1010131835939	-170.4588775634766	458.8787536621095	-662.9913330078126	-171.666244506836	468.4537658691407	-790.664001464844	-189.8479766845703	313.1582031250001	-769.823425292969	-238.096420288086	239.6726837158204	-706.6095581054689	-221.3282775878907	233.6082153320313	-751.5271606445314	-261.8389282226563	206.1315002441407	-782.7001953125002	-355.7138977050782	100.996452331543	-729.9981079101564	-345.5755920410157	127.1017150878907	-817.828063964844	-432.0659484863282	85.85947418212892	-784.5573730468752	-208.2787170410157	53.73883438110353	-788.5330200195315	-210.2477264404297	53.50331497192384	-747.2205200195314	-256.1657409667969	36.67436599731446	-701.7084350585939	
832	4.155	-126.8445510864258	1465.594482421875	-804.0820922851565	-260.9999389648438	1436.2412109375	-830.9492797851565	-286.9937744140626	1422.008056640625	-697.5260620117189	-311.5177001953126	1343.600952148438	-759.8554077148439	-509.3479003906251	1079.579467773438	-758.8885498046876	-222.6167602539063	1220.487060546875	-755.5154418945314	-227.6881561279297	1276.885498046875	-898.3818359375002	-160.580322265625	1188.452880859375	-991.398864746094	-117.971420288086	1201.009521484375	-967.784118652344	-103.9678802490235	1150.247924804688	-998.388122558594	-4.276573181152345	1109.320556640625	-998.682312011719	-16.78261947631836	1056.314697265625	-953.1903076171877	249.0707244873047	1111.6005859375	-869.393981933594	257.3576049804688	1106.623657226563	-942.8582763671877	329.5350341796876	1118.544677734375	-857.8278808593752	-221.3850402832032	1274.7041015625	-618.6457519531251	-148.5483856201172	1170.31982421875	-512.6304321289064	-106.7675552368164	1185.310791015625	-531.2976684570314	-90.27068328857423	1134.005249023438	-505.4987182617189	-0.3062047064304352	1105.299926757813	-505.3045654296876	-11.23501586914063	1048.48583984375	-565.0780029296876	246.9556579589844	1110.40478515625	-640.3568725585939	261.5988159179688	1124.090942382813	-565.5239868164064	334.7151489257813	1130.593139648438	-651.1735229492189	-402.2027587890626	896.0413208007815	-889.7627563476565	-390.1939392089845	884.1616210937502	-643.2050781250001	-567.1097412109376	949.4067382812502	-757.1757202148439	-578.8961791992189	920.3538818359377	-785.8781738281252	-579.5209350585939	916.4644775390627	-730.1624755859376	-224.3069152832032	699.8352661132814	-942.961364746094	-143.5585021972657	687.8966064453126	-918.8820800781252	-128.194580078125	722.6925659179689	-886.3890380859377	-116.7888336181641	636.3776245117189	-908.8721313476565	-69.28561401367189	603.3958129882814	-906.8808593750002	-77.55786895751955	594.7578125000001	-767.0374145507814	107.2184219360352	509.2958068847657	-847.2593383789065	100.906364440918	441.9640197753907	-902.7637329101565	132.361312866211	465.4812622070314	-879.0957031250002	189.0519256591797	412.8591308593751	-844.0950317382815	236.2352142333985	287.1060791015626	-870.8441162109377	222.0314178466797	308.3069458007813	-786.6077880859377	221.1475372314454	220.1800689697266	-830.326354980469	370.1072387695313	382.2567443847657	-780.2381591796877	372.1513061523438	385.6831970214845	-819.845153808594	368.5499267578126	345.4506530761719	-874.4866333007815	-346.5933837890626	658.5278320312501	-598.1551513671876	-283.3937072753907	638.1009521484376	-602.3530883789064	-258.2493591308594	659.4443359375001	-605.9729003906251	-256.6306762695313	563.6943969726564	-630.3818359375001	-170.8323211669922	459.2142028808595	-663.2921752929689	-172.1242980957032	468.7934875488282	-790.9484863281252	-190.2462768554688	313.3869934082032	-770.0465087890627	-238.1729431152344	239.9234619140626	-706.8047485351564	-221.4424591064454	233.8379364013672	-751.7371826171876	-261.9595336914063	206.283432006836	-782.9217529296877	-355.6524047851563	101.0497360229492	-730.0335083007814	-345.6342468261719	127.098747253418	-817.8878173828127	-432.0389099121095	85.84906005859376	-784.5787353515627	-208.2908630371094	53.73692703247072	-788.5919189453127	-210.2527465820313	53.56763458251955	-747.2282714843751	-256.1890869140626	36.7379493713379	-701.7297363281251	
833	4.16	-126.9506988525391	1466.789916992188	-804.450134277344	-261.1521911621094	1437.462036132813	-831.0471801757815	-286.8989257812501	1423.1669921875	-697.6425781250001	-311.4713439941407	1344.73681640625	-759.9365844726564	-509.1450195312501	1080.56787109375	-758.8114013671876	-222.4445800781251	1221.84912109375	-755.5289916992189	-227.7518310546876	1277.964721679688	-898.4432373046877	-160.6252899169922	1189.42236328125	-991.5843505859377	-118.1988372802735	1201.97998046875	-967.9622802734377	-104.1302490234375	1151.28125	-998.5772705078127	-4.399739742279054	1110.304931640625	-998.9888305664065	-16.90713882446289	1057.447509765625	-953.3093261718752	248.9186096191407	1112.820922851563	-869.905700683594	257.0989685058594	1107.68505859375	-943.2509765625002	329.3259887695313	1119.674682617188	-858.179626464844	-221.3003540039063	1275.976684570313	-618.7769165039064	-148.4029083251953	1171.591796875	-512.7954101562501	-106.6464538574219	1186.682006835938	-531.4173583984376	-90.0224075317383	1135.441040039063	-505.5766601562501	-0.1197254583239556	1106.67578125	-505.3084716796876	-11.02795791625977	1049.759399414063	-565.1044921875001	247.4763793945313	1111.832763671875	-640.2202148437501	261.7559204101563	1125.536499023438	-565.6936035156251	334.9228820800782	1132.046997070313	-651.6270751953126	-402.1846313476564	896.9680175781252	-889.7363891601565	-389.8264465332032	885.0429687500002	-643.0883178710939	-566.8921508789064	950.2889404296877	-757.0530395507814	-578.6226196289064	921.3807373046877	-785.666687011719	-579.1549072265626	917.431579589844	-729.9644165039064	-224.1947174072266	700.8200073242189	-942.965270996094	-143.3548431396485	688.6807861328126	-918.8371582031252	-128.1904296875	723.4268798828126	-886.2852783203127	-116.7611236572266	637.1504516601564	-908.8596191406252	-69.33593750000001	603.9852294921876	-906.8240356445315	-77.76413726806642	595.3410034179689	-767.2495727539064	107.100456237793	509.7963256835939	-847.3243408203127	100.7985763549805	442.5515136718751	-902.714050292969	132.1614074707032	465.9370422363282	-879.1472778320315	188.9145660400391	413.3305664062501	-843.986755371094	236.0186614990235	287.5154418945313	-870.8137817382815	221.7672119140626	308.6812133789063	-786.6461181640627	220.873275756836	220.6176910400391	-830.506774902344	369.9237365722657	382.5726318359376	-780.3000488281252	371.8662109375001	386.2243957519532	-820.113952636719	368.2607116699219	345.7975158691407	-874.4190063476565	-346.5889587402344	659.1005859375001	-598.3051147460939	-283.4421997070313	638.5989379882814	-602.5449829101564	-258.2161254882813	659.9862670898439	-606.1721801757814	-256.8632202148438	564.1765136718751	-630.6352539062501	-171.1760711669922	459.567108154297	-663.5742187500001	-172.5786437988282	469.1622924804689	-791.1380004882815	-190.3615875244141	313.7627258300782	-770.2915649414065	-238.290023803711	240.1051940917969	-707.0791625976564	-221.5787353515626	234.0005645751954	-752.0487060546876	-262.0580139160157	206.3719177246094	-783.082214355469	-355.6866149902344	101.1148300170899	-730.1070556640626	-345.6791687011719	127.0757217407227	-817.996520996094	-432.0231323242189	85.87307739257814	-784.591003417969	-208.0962677001954	53.88920211791994	-788.233093261719	-210.2235870361329	53.61605834960939	-747.3092651367189	-256.1417541503907	36.7677230834961	-701.7763061523439	
834	4.165	-126.57275390625	1468.116943359375	-804.6059570312502	-261.1251831054688	1438.534790039063	-831.2427368164065	-286.9081420898438	1424.325927734375	-697.7967529296876	-311.5411071777344	1345.91748046875	-760.0842285156251	-508.9244384765626	1081.45361328125	-758.5874633789064	-222.4592590332032	1222.80517578125	-755.7069702148439	-227.8260345458985	1279.06494140625	-898.5923461914065	-160.6936187744141	1190.463134765625	-991.5895996093752	-118.3068008422852	1203.0419921875	-968.264099121094	-104.1059799194336	1152.236938476563	-998.5722656250002	-4.483967304229737	1111.51953125	-999.055847167969	-17.02942848205567	1058.535034179688	-953.426696777344	248.9541931152344	1114.067138671875	-870.1149902343752	257.2847595214844	1108.935668945313	-943.6628417968752	329.2633972167969	1120.925170898438	-858.5383911132815	-221.2253875732422	1277.27490234375	-618.9069213867189	-148.2691955566407	1172.993774414063	-512.8942260742189	-106.4909439086914	1188.011596679688	-531.4857788085939	-89.90914154052736	1136.730346679688	-505.6187438964845	0.1029274836182595	1108.033325195313	-505.3694763183595	-10.93588829040528	1051.090209960938	-565.1412353515626	247.1951293945313	1113.311767578125	-640.2388916015626	261.9064025878907	1126.925903320313	-565.9696655273439	335.0168762207032	1133.338256835938	-651.8424072265626	-402.0249328613282	898.0601806640627	-889.5195312500002	-389.4506835937501	885.9123535156252	-642.9644775390626	-566.6699829101564	951.2515258789065	-756.8839721679689	-578.3903198242189	922.4666137695315	-785.522399902344	-578.8540649414064	918.4089355468752	-729.7427978515626	-224.1704254150391	701.5811767578126	-942.7916259765627	-143.3143157958985	689.3006591796876	-918.7608642578127	-128.0948944091797	724.1507568359376	-886.1641845703127	-116.7864151000977	638.0262451171876	-908.7776489257815	-69.36161041259767	604.6040649414064	-906.7071533203127	-77.88623046875001	595.9803466796876	-767.2403564453126	106.9334411621094	510.3595275878907	-847.2629394531252	100.642448425293	442.9713745117189	-902.6491699218752	131.954345703125	466.4783935546876	-879.247985839844	188.5937957763672	413.7413940429689	-844.1931762695315	235.814193725586	287.9295043945313	-870.9354248046877	221.4885253906251	309.1364440917969	-786.619812011719	220.5242767333985	221.0423278808594	-830.484313964844	369.7696228027344	382.9605407714844	-780.3890380859377	371.6831054687501	386.5354309082032	-820.0398559570315	367.9279479980469	346.1490173339844	-874.4808349609377	-346.4980468750001	659.6983642578126	-598.4362182617189	-283.4369506835938	639.0336303710939	-602.7332763671876	-258.1795043945313	660.4957885742189	-606.4312133789064	-257.0303649902344	564.6530761718751	-630.9038085937501	-171.5035095214844	459.871551513672	-663.8184814453126	-173.0004425048828	469.5111083984376	-791.4404296875002	-190.6492462158203	313.9498291015626	-770.5367431640627	-238.4302215576172	240.2437286376954	-707.1062011718751	-221.6836090087891	234.1853027343751	-752.2873535156251	-262.1965942382813	206.5115356445313	-783.222839355469	-355.6772155761719	101.1969757080078	-730.1380615234376	-345.7308959960938	127.0606536865235	-818.0466308593752	-432.0003662109376	85.89270782470705	-784.6121215820315	-208.0825958251954	53.90282058715822	-788.256774902344	-210.2185516357422	53.67168426513673	-747.3342895507814	-256.1679992675782	36.81847000122071	-701.8432006835939	
